<svg xmlns="http://www.w3.org/2000/svg" viewBox="0 0 960 520" font-family="Segoe UI, system-ui, -apple-system, sans-serif">
  <defs>
    <linearGradient id="bg" x1="0" y1="0" x2="0" y2="1">
      <stop offset="0%" stop-color="#0d1117"/>
      <stop offset="100%" stop-color="#161b22"/>
    </linearGradient>
    <linearGradient id="blueBox" x1="0" y1="0" x2="1" y2="1">
      <stop offset="0%" stop-color="#1a3a5c"/>
      <stop offset="100%" stop-color="#0d2137"/>
    </linearGradient>
    <linearGradient id="purpleBox" x1="0" y1="0" x2="1" y2="1">
      <stop offset="0%" stop-color="#3b2356"/>
      <stop offset="100%" stop-color="#1e1233"/>
    </linearGradient>
    <linearGradient id="greenBox" x1="0" y1="0" x2="1" y2="1">
      <stop offset="0%" stop-color="#0d3320"/>
      <stop offset="100%" stop-color="#091f14"/>
    </linearGradient>
    <filter id="glow">
      <feGaussianBlur stdDeviation="3" result="blur"/>
      <feMerge><feMergeNode in="blur"/><feMergeNode in="SourceGraphic"/></feMerge>
    </filter>
    <marker id="arrowBlue" viewBox="0 0 10 7" refX="10" refY="3.5" markerWidth="10" markerHeight="7" orient="auto-start-reverse">
      <path d="M0,0 L10,3.5 L0,7z" fill="#58a6ff"/>
    </marker>
    <marker id="arrowPurple" viewBox="0 0 10 7" refX="10" refY="3.5" markerWidth="10" markerHeight="7" orient="auto-start-reverse">
      <path d="M0,0 L10,3.5 L0,7z" fill="#bc8cff"/>
    </marker>
    <marker id="arrowGreen" viewBox="0 0 10 7" refX="10" refY="3.5" markerWidth="10" markerHeight="7" orient="auto-start-reverse">
      <path d="M0,0 L10,3.5 L0,7z" fill="#3fb950"/>
    </marker>
    <marker id="arrowDim" viewBox="0 0 10 7" refX="10" refY="3.5" markerWidth="10" markerHeight="7" orient="auto-start-reverse">
      <path d="M0,0 L10,3.5 L0,7z" fill="#484f58"/>
    </marker>
  </defs>

  <!-- Background -->
  <rect width="960" height="520" rx="12" fill="url(#bg)" stroke="#30363d" stroke-width="1"/>

  <!-- Title -->
  <text x="480" y="52" text-anchor="middle" fill="#e6edf3" font-size="26" font-weight="700" letter-spacing="-0.5">patchling</text>
  <text x="480" y="78" text-anchor="middle" fill="#8b949e" font-size="14" font-weight="400">Smart Diffs, Applied Intelligently</text>

  <!-- Separator line -->
  <line x1="80" y1="95" x2="880" y2="95" stroke="#21262d" stroke-width="1"/>

  <!-- STEP 1: Current State -->
  <rect x="40" y="140" width="210" height="140" rx="10" fill="url(#blueBox)" stroke="#58a6ff" stroke-width="1.5" opacity="0.95"/>
  <!-- Files icon -->
  <rect x="70" y="168" width="16" height="20" rx="2" fill="none" stroke="#58a6ff" stroke-width="1.5"/>
  <path d="M70,170 L78,170 L86,178 L86,188 L70,188z" fill="none" stroke="#58a6ff" stroke-width="1.5"/>
  <path d="M78,170 L78,178 L86,178" fill="none" stroke="#58a6ff" stroke-width="1.5"/>
  <rect x="60" y="168" width="16" height="20" rx="2" fill="none" stroke="#58a6ff" stroke-width="1.2" opacity="0.5"/>
  <text x="145" y="172" text-anchor="middle" fill="#58a6ff" font-size="13" font-weight="600" opacity="0.7">STEP 1</text>
  <text x="145" y="200" text-anchor="middle" fill="#e6edf3" font-size="20" font-weight="700">Current State</text>
  <text x="145" y="224" text-anchor="middle" fill="#8b949e" font-size="13">Your project files</text>
  <text x="145" y="248" text-anchor="middle" fill="#8b949e" font-size="11" opacity="0.7">src/  tests/  config/</text>

  <!-- Arrow 1: generateDiff -->
  <line x1="265" y1="210" x2="345" y2="210" stroke="#58a6ff" stroke-width="2" marker-end="url(#arrowBlue)"/>
  <rect x="278" y="190" width="54" height="20" rx="4" fill="#0d1117" stroke="#30363d" stroke-width="1"/>
  <text x="305" y="204" text-anchor="middle" fill="#58a6ff" font-size="10" font-weight="600">generate</text>
  <text x="305" y="224" text-anchor="middle" fill="#58a6ff" font-size="10" font-weight="600">Diff</text>

  <!-- STEP 2: Unified Diff -->
  <rect x="360" y="140" width="240" height="140" rx="10" fill="url(#purpleBox)" stroke="#bc8cff" stroke-width="1.5" opacity="0.95"/>
  <!-- Diff icon -->
  <rect x="400" y="163" width="80" height="50" rx="4" fill="none" stroke="#bc8cff" stroke-width="1" opacity="0.4"/>
  <text x="410" y="179" fill="#f85149" font-size="12" font-family="monospace" opacity="0.9">- old code</text>
  <text x="410" y="195" fill="#3fb950" font-size="12" font-family="monospace" opacity="0.9">+ new code</text>
  <text x="410" y="207" fill="#8b949e" font-size="10" font-family="monospace" opacity="0.6">@@ context @@</text>
  <text x="480" y="172" text-anchor="middle" fill="#bc8cff" font-size="13" font-weight="600" opacity="0.7">STEP 2</text>
  <text x="480" y="248" text-anchor="middle" fill="#e6edf3" font-size="20" font-weight="700">Unified Diff</text>
  <text x="480" y="268" text-anchor="middle" fill="#8b949e" font-size="13">LLM creates a patch</text>

  <!-- Arrow 2: smartapply -->
  <line x1="615" y1="210" x2="695" y2="210" stroke="#bc8cff" stroke-width="2" marker-end="url(#arrowPurple)"/>
  <rect x="620" y="190" width="66" height="20" rx="4" fill="#0d1117" stroke="#30363d" stroke-width="1"/>
  <text x="653" y="204" text-anchor="middle" fill="#bc8cff" font-size="10" font-weight="600">smart</text>
  <text x="653" y="224" text-anchor="middle" fill="#bc8cff" font-size="10" font-weight="600">apply</text>

  <!-- STEP 3: Updated Files -->
  <rect x="710" y="140" width="210" height="140" rx="10" fill="url(#greenBox)" stroke="#3fb950" stroke-width="1.5" opacity="0.95"/>
  <!-- Checkmark icon -->
  <circle cx="815" cy="180" r="16" fill="none" stroke="#3fb950" stroke-width="2"/>
  <path d="M805,180 L812,187 L826,173" fill="none" stroke="#3fb950" stroke-width="2.5" stroke-linecap="round" stroke-linejoin="round"/>
  <text x="815" y="172" text-anchor="middle" fill="#3fb950" font-size="13" font-weight="600" opacity="0.7">STEP 3</text>
  <text x="815" y="224" text-anchor="middle" fill="#e6edf3" font-size="20" font-weight="700">Updated Files</text>
  <text x="815" y="248" text-anchor="middle" fill="#8b949e" font-size="13">One step closer</text>
  <text x="815" y="265" text-anchor="middle" fill="#8b949e" font-size="13">to your goal</text>

  <!-- Iterate loop-back arrow -->
  <path d="M815,290 L815,320 Q815,335 800,335 L160,335 Q145,335 145,320 L145,290"
        fill="none" stroke="#484f58" stroke-width="1.5" stroke-dasharray="6,4" marker-end="url(#arrowDim)"/>
  <text x="480" y="350" text-anchor="middle" fill="#484f58" font-size="12" font-weight="500">iterate until done</text>

  <!-- Bottom features section -->
  <line x1="80" y1="380" x2="880" y2="380" stroke="#21262d" stroke-width="1"/>

  <!-- Feature 1: Smart Conflict Resolution -->
  <rect x="55" y="395" width="270" height="90" rx="8" fill="#161b22" stroke="#30363d" stroke-width="1"/>
  <!-- Brain icon -->
  <circle cx="90" cy="428" r="14" fill="none" stroke="#bc8cff" stroke-width="1.5"/>
  <path d="M82,428 Q82,418 90,418 Q98,418 98,428 Q98,438 90,438 Q82,438 82,428" fill="none" stroke="#bc8cff" stroke-width="1.2"/>
  <path d="M86,420 Q90,424 94,420" fill="none" stroke="#bc8cff" stroke-width="1"/>
  <path d="M84,428 L96,428" stroke="#bc8cff" stroke-width="1" opacity="0.6"/>
  <path d="M90,418 L90,438" stroke="#bc8cff" stroke-width="1" opacity="0.4"/>
  <text x="125" y="428" fill="#e6edf3" font-size="14" font-weight="600">Smart Conflict</text>
  <text x="125" y="448" fill="#e6edf3" font-size="14" font-weight="600">Resolution</text>
  <text x="125" y="468" fill="#8b949e" font-size="11">Per-file LLM resolves merge</text>
  <text x="125" y="481" fill="#8b949e" font-size="11">conflicts automatically</text>

  <!-- Feature 2: Browser and Node.js -->
  <rect x="345" y="395" width="270" height="90" rx="8" fill="#161b22" stroke="#30363d" stroke-width="1"/>
  <!-- Globe icon -->
  <circle cx="380" cy="428" r="14" fill="none" stroke="#58a6ff" stroke-width="1.5"/>
  <ellipse cx="380" cy="428" rx="8" ry="14" fill="none" stroke="#58a6ff" stroke-width="1"/>
  <line x1="366" y1="428" x2="394" y2="428" stroke="#58a6ff" stroke-width="1"/>
  <line x1="369" y1="420" x2="391" y2="420" stroke="#58a6ff" stroke-width="0.8" opacity="0.6"/>
  <line x1="369" y1="436" x2="391" y2="436" stroke="#58a6ff" stroke-width="0.8" opacity="0.6"/>
  <text x="415" y="428" fill="#e6edf3" font-size="14" font-weight="600">Browser &amp;</text>
  <text x="415" y="448" fill="#e6edf3" font-size="14" font-weight="600">Node.js</text>
  <text x="415" y="468" fill="#8b949e" font-size="11">Same API everywhere, runs</text>
  <text x="415" y="481" fill="#8b949e" font-size="11">in the browser or server</text>

  <!-- Feature 3: Full CRUD -->
  <rect x="635" y="395" width="270" height="90" rx="8" fill="#161b22" stroke="#30363d" stroke-width="1"/>
  <!-- Lightning icon -->
  <path d="M674,414 L666,430 L674,430 L668,442 L680,426 L672,426 L678,414z" fill="#e3b341" stroke="#e3b341" stroke-width="0.5" stroke-linejoin="round"/>
  <text x="705" y="428" fill="#e6edf3" font-size="14" font-weight="600">Create, Modify &amp;</text>
  <text x="705" y="448" fill="#e6edf3" font-size="14" font-weight="600">Delete Files</text>
  <text x="705" y="468" fill="#8b949e" font-size="11">Full file lifecycle through</text>
  <text x="705" y="481" fill="#8b949e" font-size="11">intelligent diff application</text>
</svg>